HIERARCHY
ROOT Hips
{
	OFFSET 0.00 0.00 0.00
	CHANNELS 6 Xposition Yposition Zposition Xrotation Yrotation Zrotation
	JOINT Spine
	{
		OFFSET 0.00000 5.89385 0.00000
		CHANNELS 3 Xrotation Yrotation Zrotation
		JOINT Head
		{
			OFFSET 0.00000 16.44715 0.00000
			CHANNELS 3 Xrotation Yrotation Zrotation
			End Site
			{
				OFFSET 0.00000 4.52755 0.00000
			}
		}
		JOINT LeftShoulder
		{
			OFFSET 0.00000 10.90038 0.00000
			CHANNELS 3 Xrotation Yrotation Zrotation
			JOINT LeftArm
			{
				OFFSET 8.21946 0.00000 0.00000
				CHANNELS 3 Xrotation Yrotation Zrotation
				JOINT LeftForeArm
				{
					OFFSET 11.09494 0.00000 0.00000
					CHANNELS 3 Yrotation Zrotation Xrotation
					JOINT LeftHand
					{
						OFFSET 9.10388 0.00000 0.00000
						CHANNELS 3 Xrotation Yrotation Zrotation
						JOINT LeftHandThumb1
						{
							OFFSET 0.00000 0.00000 0.00000
							CHANNELS 3 Xrotation Zrotation Yrotation
							End Site
							{
								OFFSET 0.00000 0.00000 3.93700
							}
						}
						End Site
						{
							OFFSET 3.93700 0.00000 0.00000
						}
					}
				}
			}
		}
		JOINT RightShoulder
		{
			OFFSET 0.00000 10.90038 0.00000
			CHANNELS 3 Xrotation Yrotation Zrotation
			JOINT RightArm
			{
				OFFSET -8.21946 0.00000 0.00000
				CHANNELS 3 Xrotation Yrotation Zrotation
				JOINT RightForeArm
				{
					OFFSET -11.09494 0.00000 0.00000
					CHANNELS 3 Yrotation Zrotation Xrotation
					JOINT RightHand
					{
						OFFSET -9.10388 0.00000 0.00000
						CHANNELS 3 Xrotation Yrotation Zrotation
						JOINT RightHandThumb1
						{
							OFFSET 0.00000 0.00000 0.00000
							CHANNELS 3 Xrotation Zrotation Yrotation
							End Site
							{
								OFFSET 0.00000 0.00000 3.93700
							}
						}
						End Site
						{
							OFFSET -3.93700 0.00000 0.00000
						}
					}
				}
			}
		}
	}
	JOINT LeftUpLeg
	{
		OFFSET 3.69794 0.00000 0.00000
		CHANNELS 3 Xrotation Yrotation Zrotation
		JOINT LeftLeg
		{
			OFFSET 0.00000 -16.18147 0.00000
			CHANNELS 3 Xrotation Yrotation Zrotation
			JOINT LeftFoot
			{
				OFFSET 0.00000 -16.50139 0.00000
				CHANNELS 3 Xrotation Yrotation Zrotation
				JOINT LeftToeBase
				{
					OFFSET 0.00000 -1.65857 6.18989
					CHANNELS 3 Xrotation Yrotation Zrotation
					End Site
					{
						OFFSET 0.00000 0.00000 2.95275
					}
				}
			}
		}
	}
	JOINT RightUpLeg
	{
		OFFSET -3.69794 0.00000 0.00000
		CHANNELS 3 Xrotation Yrotation Zrotation
		JOINT RightLeg
		{
			OFFSET 0.00000 -16.18147 0.00000
			CHANNELS 3 Xrotation Yrotation Zrotation
			JOINT RightFoot
			{
				OFFSET 0.00000 -16.50139 0.00000
				CHANNELS 3 Xrotation Yrotation Zrotation
				JOINT RightToeBase
				{
					OFFSET 0.00000 -1.65857 6.18989
					CHANNELS 3 Xrotation Yrotation Zrotation
					End Site
					{
						OFFSET 0.00000 0.00000 2.95275
					}
				}
			}
		}
	}
}
MOTION
Frames: 19
Frame Time: 0.008333
 4.2523 36.2304 2.9460 100.1284 -64.9127 102.5839 -22.9883 2.2423 -4.9066 10.9507 2.9451 3.9369 8.1482 11.2636 30.0156 -36.0713 9.4920 -29.2224 -5.6431 0.0000 25.1549 2.4866 12.7289 -11.1496 33.1476 -0.0000 26.2537 41.0001 -32.1780 -9.0724 -64.0010 7.5214 32.7035 -0.6876 -0.0000 -5.8516 0.5288 -2.0475 14.4856 32.8623 0.0000 -24.3270 -26.4958 9.4286 3.8913 12.8423 0.0000 -0.0000 -9.6805 14.9876 -8.2116 8.5260 -0.0000 -0.0000 -27.6543 0.8886 -8.6850 11.0428 0.0000 -0.0000 -8.7370 -10.2939 16.4949 13.0709 -0.0000 0.0000
 4.2553 36.2299 2.9503 100.1083 -64.9026 102.5707 -22.9968 2.2050 -4.9069 10.9238 2.8539 3.9500 8.2984 11.3606 29.9031 -35.8968 9.4082 -29.3735 -6.2639 0.0000 24.9515 2.4285 12.9515 -10.7152 33.1476 -0.0000 26.2537 41.0468 -32.1715 -9.0287 -63.8781 7.5623 32.7242 -0.4170 -0.0000 -6.0783 0.5685 -2.2161 14.3932 32.8623 0.0000 -24.3270 -26.5232 9.4030 3.8779 12.8705 0.0000 -0.0000 -9.7008 15.0130 -8.2219 8.5612 -0.0000 0.0000 -27.6868 0.8707 -8.7026 11.0665 0.0000 -0.0000 -8.7299 -10.2790 16.5151 13.0024 -0.0000 0.0000
 4.2579 36.2295 2.9549 100.1048 -64.8922 102.5735 -23.0025 2.1831 -4.9002 10.8925 2.7485 3.9485 8.3545 11.3519 29.7904 -35.5073 9.3863 -29.5060 -7.0723 0.0000 24.6447 2.4181 13.2620 -10.4301 33.1476 -0.0000 26.2537 41.0792 -32.1811 -8.9846 -63.7798 7.5790 32.7458 -0.1556 -0.0000 -6.0767 0.5540 -2.1512 14.4455 32.8623 0.0000 -24.3270 -26.5410 9.3975 3.8656 12.8794 0.0000 -0.0000 -9.6961 15.0185 -8.2297 8.5296 -0.0000 0.0000 -27.7155 0.8546 -8.7159 11.0865 0.0000 -0.0000 -8.7382 -10.2596 16.5125 13.0800 0.0000 -0.0000
 4.2609 36.2284 2.9606 100.1231 -64.8822 102.6028 -22.9998 2.1776 -4.8898 10.8462 2.6458 3.9306 8.3870 11.3261 29.6637 -35.1002 9.3805 -29.6406 -7.9489 0.0000 24.4633 2.3660 13.4670 -10.0606 33.1476 -0.0000 26.2537 41.1134 -32.2070 -8.9280 -63.6784 7.6057 32.7750 0.1311 -0.0000 -6.0519 0.5281 -2.0547 14.4175 32.8623 0.0000 -24.3270 -26.5623 9.4210 3.8518 12.9005 0.0000 0.0000 -9.7101 15.0147 -8.2124 8.5245 -0.0000 0.0000 -27.7511 0.8418 -8.7354 11.1163 -0.0000 -0.0000 -8.7397 -10.2235 16.5201 12.9982 -0.0000 -0.0000
 4.2644 36.2283 2.9650 100.0643 -64.8511 102.5510 -23.0346 2.1516 -4.8849 10.8165 2.5378 3.9332 8.4421 11.3350 29.5582 -34.6720 9.3527 -29.8551 -8.9319 0.0000 24.0661 2.2847 13.4617 -9.7251 33.1476 -0.0000 26.2537 41.1622 -32.2379 -8.8605 -63.5890 7.6084 32.8128 0.4720 -0.0000 -6.0460 0.5191 -2.0210 14.4086 32.8623 0.0000 -24.3270 -26.6124 9.4129 3.8370 12.9156 0.0000 -0.0000 -9.7094 15.0096 -8.2036 8.5289 -0.0000 0.0000 -27.8007 0.8241 -8.7517 11.1321 -0.0000 -0.0000 -8.7452 -10.2171 16.5177 13.0298 0.0000 -0.0000
 4.2687 36.2285 2.9697 100.0066 -64.8001 102.5013 -23.0946 2.1229 -4.8808 10.7944 2.4291 3.9328 8.5306 11.3534 29.4254 -34.2538 9.3479 -30.0456 -10.0266 0.0000 23.7615 2.2527 13.6520 -9.4621 33.1476 -0.0000 26.2537 41.2013 -32.2524 -8.7911 -63.4819 7.6284 32.8340 0.8137 -0.0000 -6.0026 0.4986 -1.9301 14.4863 32.8623 0.0000 -24.3270 -26.6822 9.3986 3.8220 12.9321 0.0000 0.0000 -9.7154 15.0159 -8.2078 8.5524 -0.0000 0.0000 -27.8698 0.8164 -8.7668 11.1470 -0.0000 0.0000 -8.7430 -10.2156 16.5254 13.0622 -0.0000 0.0000
 4.2704 36.2280 2.9751 99.9513 -64.7870 102.4550 -23.1149 2.0977 -4.8792 10.7695 2.3160 3.9418 8.6537 11.3843 29.2890 -33.8400 9.3568 -30.2685 -11.2413 0.0000 23.5495 2.2748 13.8703 -9.4088 33.1476 -0.0000 26.2537 41.2350 -32.2838 -8.7210 -63.3101 7.6600 32.8693 1.2302 -0.0000 -5.9331 0.5012 -1.9378 14.5042 32.8623 0.0000 -24.3270 -26.7055 9.4022 3.8011 12.9357 -0.0000 0.0000 -9.7199 14.9994 -8.1832 8.5707 0.0000 -0.0000 -27.8934 0.8038 -8.7860 11.1548 0.0000 -0.0000 -8.7424 -10.2214 16.5027 13.0198 0.0000 0.0000
 4.2740 36.2277 2.9806 99.8788 -64.7464 102.3926 -23.1691 2.0502 -4.8773 10.7498 2.2087 3.9485 8.7999 11.4482 29.1259 -33.5633 9.4455 -30.4743 -12.5658 0.0000 23.3729 2.2070 13.9258 -9.0976 33.1476 -0.0000 26.2537 41.3373 -32.3155 -8.6385 -63.1807 7.7104 32.9294 1.6375 -0.0000 -6.0521 0.5001 -1.9405 14.4545 32.8623 0.0000 -24.3270 -26.7607 9.4052 3.7813 12.9396 0.0000 0.0000 -9.7230 14.9832 -8.1700 8.5727 -0.0000 0.0000 -27.9479 0.8019 -8.8047 11.1689 -0.0000 0.0000 -8.7503 -10.2405 16.5038 13.0305 -0.0000 0.0000
 4.2768 36.2269 2.9856 99.8304 -64.7273 102.3459 -23.1930 2.0117 -4.8763 10.7132 2.1073 3.9761 8.9430 11.5226 28.9735 -33.3400 9.5593 -30.7014 -13.9442 0.0000 23.2499 2.1693 13.9855 -8.9081 33.1476 -0.0000 26.2537 41.4634 -32.3437 -8.5142 -63.0767 7.7944 32.9819 1.9994 -0.0000 -6.1638 0.4763 -1.8519 14.4246 32.8623 0.0000 -24.3270 -26.7965 9.4346 3.7731 12.9486 -0.0000 -0.0000 -9.7323 14.9502 -8.1559 8.5802 0.0000 -0.0000 -27.9712 0.8182 -8.8106 11.1721 0.0000 -0.0000 -8.7504 -10.2783 16.4769 13.0372 -0.0000 0.0000
 4.2789 36.2261 2.9909 99.7711 -64.7135 102.2884 -23.2128 1.9712 -4.8763 10.6694 1.9938 4.0082 9.0997 11.6112 28.7872 -33.1983 9.6825 -30.9137 -15.3940 0.0000 23.1878 2.1425 14.0081 -8.7858 33.1476 -0.0000 26.2537 41.5650 -32.3746 -8.4082 -62.9805 7.8451 33.0541 2.3735 -0.0000 -6.2100 0.4556 -1.7809 14.3523 32.8623 0.0000 -24.3270 -26.8184 9.4356 3.7602 12.9450 -0.0000 -0.0000 -9.7363 14.9307 -8.1404 8.5809 0.0000 0.0000 -27.9908 0.8451 -8.8199 11.1875 -0.0000 0.0000 -8.7630 -10.3159 16.4688 13.0158 -0.0000 -0.0000
 4.2801 36.2251 2.9964 99.7410 -64.7086 102.2652 -23.2227 1.9382 -4.8896 10.6337 1.8785 4.0627 9.2648 11.7460 28.6035 -33.0962 9.7723 -31.1508 -16.8829 0.0000 23.3211 2.0928 14.0779 -8.5437 33.1476 -0.0000 26.2537 41.6774 -32.3826 -8.2961 -62.8475 7.9104 33.1142 2.7578 -0.0000 -6.3328 0.4473 -1.7483 14.3525 32.8623 0.0000 -24.3270 -26.8274 9.4594 3.7459 12.9428 -0.0000 -0.0000 -9.7431 14.9055 -8.1425 8.5772 -0.0000 0.0000 -28.0028 0.8783 -8.8333 11.2061 -0.0000 0.0000 -8.7775 -10.3647 16.4640 13.0006 -0.0000 -0.0000
 4.2822 36.2243 3.0014 99.6655 -64.7031 102.1939 -23.2374 1.8943 -4.9019 10.5908 1.7658 4.1059 9.4171 11.8512 28.4081 -33.0300 9.9010 -31.3842 -18.4683 0.0000 23.3778 2.0987 13.9859 -8.6221 33.1476 -0.0000 26.2537 41.7895 -32.4032 -8.1832 -62.7189 7.9694 33.1831 3.1477 -0.0000 -6.4774 0.4315 -1.6812 14.3968 32.8623 0.0000 -24.3270 -26.8450 9.4479 3.7311 12.9437 -0.0000 0.0000 -9.7387 14.8787 -8.1415 8.5578 -0.0000 0.0000 -28.0216 0.8854 -8.8473 11.2266 -0.0000 0.0000 -8.7873 -10.3851 16.4318 13.0273 -0.0000 -0.0000
 4.2850 36.2236 3.0060 99.5800 -64.6932 102.1118 -23.2586 1.8362 -4.9115 10.5454 1.6557 4.1355 9.5887 12.0013 28.1687 -32.9243 9.9012 -31.6419 -20.0843 0.0000 23.2941 2.0672 14.2178 -8.3604 33.1476 -0.0000 26.2537 41.8327 -32.3978 -8.1140 -62.6055 7.9773 33.2484 3.5194 -0.0000 -6.4123 0.4169 -1.6203 14.4325 32.8623 0.0000 -24.3270 -26.8708 9.4338 3.7174 12.9467 0.0000 -0.0000 -9.7447 14.8610 -8.1446 8.5800 -0.0000 0.0000 -28.0514 0.8926 -8.8621 11.2602 -0.0000 0.0000 -8.8011 -10.4272 16.4429 12.9945 0.0000 -0.0000
 4.2868 36.2226 3.0100 99.5233 -64.6936 102.0563 -23.2683 1.8169 -4.9275 10.5173 1.5233 4.1917 9.7536 12.1114 27.9587 -32.7718 9.9063 -31.9377 -21.7715 0.0000 23.2951 2.0377 14.4726 -8.1026 33.1476 -0.0000 26.2537 41.9225 -32.4138 -8.0018 -62.5661 7.9468 33.3352 3.9289 -0.0000 -6.4005 0.4134 -1.5997 14.4911 32.8623 0.0000 -24.3270 -26.8838 9.4345 3.7145 12.9519 -0.0000 0.0000 -9.7544 14.7934 -8.1091 8.6113 -0.0000 0.0000 -28.0673 0.9175 -8.8726 11.2942 0.0000 -0.0000 -8.8107 -10.4579 16.4328 12.9653 -0.0000 0.0000
 4.2888 36.2219 3.0136 99.4258 -64.7009 101.9633 -23.2687 1.7834 -4.9502 10.4651 1.3737 4.2424 9.9107 12.2376 27.7278 -32.6501 9.9063 -32.2115 -23.4774 -0.0000 23.4061 2.0038 14.4022 -8.0068 33.1476 -0.0000 26.2537 42.0028 -32.4177 -7.8875 -62.4766 7.9014 33.3940 4.3870 -0.0000 -6.2689 0.3938 -1.5113 14.6055 32.8623 0.0000 -24.3270 -26.8980 9.4206 3.6938 12.9665 -0.0000 0.0000 -9.7564 14.8035 -8.1648 8.6013 -0.0000 0.0000 -28.0907 0.8867 -8.8926 11.3391 -0.0000 -0.0000 -8.8286 -10.4634 16.4367 12.9898 -0.0000 0.0000
 4.2911 36.2207 3.0178 99.4025 -64.7073 101.9387 -23.2610 1.7869 -4.9661 10.4099 1.2202 4.3130 10.0794 12.3601 27.5114 -32.4862 9.8802 -32.5756 -25.2751 -0.0000 23.3423 1.9137 14.5365 -7.5829 33.1476 -0.0000 26.2537 42.0609 -32.4191 -7.7771 -62.4228 7.8281 33.4657 4.8483 -0.0000 -6.1645 0.4091 -1.5555 14.7361 32.8623 0.0000 -24.3270 -26.9060 9.4333 3.6900 12.9796 -0.0000 0.0000 -9.7665 14.7815 -8.1614 8.6319 -0.0000 0.0000 -28.1205 0.8655 -8.9040 11.3926 -0.0000 0.0000 -8.8403 -10.4413 16.4443 12.9635 -0.0000 0.0000
 4.2940 36.2196 3.0214 99.3528 -64.7122 101.8850 -23.2588 1.7970 -4.9897 10.3597 1.0442 4.4033 10.2220 12.4510 27.3540 -32.0725 9.7099 -32.9973 -27.0572 -0.0000 22.9738 1.8192 14.7259 -7.1221 33.1476 -0.0000 26.2537 42.1369 -32.4040 -7.6570 -62.3233 7.7317 33.5249 5.3307 -0.0000 -6.0612 0.4126 -1.5688 14.7387 32.8623 0.0000 -24.3270 -26.9195 9.4200 3.6847 12.9968 0.0000 -0.0000 -9.7879 14.7679 -8.1601 8.6450 0.0000 -0.0000 -28.1485 0.8340 -8.9129 11.4382 0.0000 -0.0000 -8.8505 -10.4370 16.4647 12.9724 0.0000 -0.0000
 4.2966 36.2189 3.0254 99.3309 -64.7210 101.8582 -23.2648 1.8089 -5.0116 10.3542 0.8812 4.4942 10.3683 12.5246 27.2005 -31.6276 9.5601 -33.4420 -28.9528 -0.0000 22.7563 1.7227 14.9942 -6.6309 33.1476 -0.0000 26.2537 42.3305 -32.4155 -7.4988 -62.3451 7.6115 33.6244 5.9042 -0.0000 -5.9277 0.4758 -1.7931 14.8628 32.8623 0.0000 -24.3270 -26.9221 9.3937 3.6858 13.0065 -0.0000 0.0000 -9.7985 14.7418 -8.1024 8.6405 0.0000 0.0000 -28.1710 0.8135 -8.9206 11.4823 -0.0000 0.0000 -8.8598 -10.4206 16.4744 12.9848 0.0000 -0.0000
 4.2995 36.2178 3.0296 99.3168 -64.7231 101.8396 -23.2622 1.8324 -5.0394 10.3020 0.6965 4.6169 10.4668 12.5915 27.0775 -31.1342 9.3934 -33.9308 -30.9040 -0.0000 22.7530 1.6069 15.1653 -6.1208 33.1476 -0.0000 26.2537 42.3692 -32.3815 -7.3969 -62.1161 7.5891 33.6749 6.3674 0.0000 -6.0905 0.4772 -1.7996 14.8528 32.8623 0.0000 -24.3270 -26.9353 9.4042 3.6794 13.0229 -0.0000 0.0000 -9.8165 14.7602 -8.1414 8.6617 -0.0000 0.0000 -28.2019 0.7827 -8.9280 11.5239 -0.0000 -0.0000 -8.8622 -10.3913 16.4872 12.9536 0.0000 0.0000
